<svg width="960" height="960" viewBox="0 0 960 960" fill="none" xmlns="http://www.w3.org/2000/svg">
<g id="Tv2Sport2" clip-path="url(#clip0)">
<path id="Rectangle 2" fill-rule="evenodd" clip-rule="evenodd" d="M0 0H960V966H0V0Z" fill="#212DFF"/>
<g id="TV 2 Sport 2_logo_hvit_sentrert">
<path id="Vector" d="M479.448 212.353C558.223 212.353 614.078 268.071 614.078 349.179V382.802H545.871V349.179C545.871 305.811 518.835 278.776 479.448 278.776C440.061 278.776 413.025 305.811 413.025 349.179H344.955C344.955 268.016 400.674 212.353 479.448 212.353ZM344.955 553.251H614.078V487.789H428.121L523.776 382.939H440.61L344.955 487.789V553.251Z" fill="white"/>
<path id="Vector_2" d="M245.045 718.155H265.438C267.25 727.048 276.157 732.867 288.536 732.867C300.283 732.867 307.255 728.86 307.255 722.286C307.255 703.951 249.615 717.249 249.615 678.013C249.615 662.272 263.16 650.277 284.844 650.277C306.253 650.277 321.363 662.409 325.356 681.842H304.798C303.124 673.608 295.768 668.297 284.803 668.297C275.196 668.297 269.446 672.414 269.446 677.972C269.446 696.691 327.086 682.885 327.086 722.245C327.086 739.784 312.113 750.886 288.494 750.886C265.727 750.941 249.176 738.288 245.045 718.155Z" fill="white"/>
<path id="Vector_3" d="M337.447 677.135H355.508V692.231H356.88C361.533 680.483 370.604 675.831 381.405 675.831C399.245 675.831 411.734 690.296 411.734 713.393C411.734 736.49 399.218 750.941 381.405 750.941C370.563 750.941 361.533 746.165 356.88 734.555H355.508V778.814H337.447V677.135ZM373.568 735.2C384.547 735.2 391.642 726.678 391.642 713.393C391.642 700.108 384.547 691.586 373.568 691.586C362.589 691.586 355.508 699.971 355.508 713.393C355.508 726.815 362.603 735.2 373.568 735.2Z" fill="white"/>
<path id="Vector_4" d="M419.764 713.393C419.764 691.586 435.258 675.831 458.19 675.831C481.123 675.831 496.507 691.586 496.507 713.393C496.507 735.2 481.027 750.941 458.19 750.941C435.354 750.941 419.764 735.063 419.764 713.393ZM458.19 735.351C469.279 735.351 477.404 727.227 477.404 713.393C477.404 699.559 469.265 691.435 458.19 691.435C447.115 691.435 438.826 699.436 438.826 713.393C438.826 727.35 446.992 735.324 458.231 735.324L458.19 735.351Z" fill="white"/>
<path id="Vector_5" d="M506.867 677.135H524.928V692.231H526.3C530.939 680.744 539.722 677.135 549.136 677.135H554.434C561.145 677.135 562.943 675.323 562.943 668.612V658.031H580.783V677.135H598.199V692.354H580.811V733.004H598.226V749.72H582.485C568.295 749.72 562.997 744.299 562.997 730.232V692.354H541.973C531.254 692.354 524.928 699.834 524.928 712.487V749.72H506.867V677.135Z" fill="white"/>
<path id="Vector_6" d="M695.13 682.034C695.13 673.896 688.557 667.446 677.289 667.446C665.802 667.446 657.802 675.323 657.802 685.904H639.014C639.014 665.387 654.371 650.291 677.344 650.291C699.796 650.291 713.987 663.315 713.987 682.034C713.987 718.032 658.501 716.097 658.501 731.193V732.483H713.987V749.72H639.261V737.066C639.261 694.934 695.13 705.392 695.13 682.034Z" fill="white"/>
</g>
</g>
<defs>
<clipPath id="clip0">
<rect width="960" height="960" fill="white"/>
</clipPath>
</defs>
</svg>
